<svg width="12" height="10" viewBox="0 0 12 10" fill="none" xmlns="http://www.w3.org/2000/svg">
<path d="M5.83333 5.83333V5.83333V5.83333V5.83333V5.83333V5.83333V5.83333V5.83333V5.83333V5.83333V5.83333V5.83333V5.83333V5.83333V5.83333V5.83333V5.83333V5.83333M0 9.33333V3.5C0 3.17917 0.114236 2.90451 0.342708 2.67604C0.571181 2.44757 0.845833 2.33333 1.16667 2.33333H2.91667V1.16667C2.91667 0.845833 3.0309 0.571181 3.25938 0.342708C3.48785 0.114236 3.7625 0 4.08333 0H7.58333C7.90417 0 8.17882 0.114236 8.40729 0.342708C8.63576 0.571181 8.75 0.845833 8.75 1.16667V2.33333H10.5C10.8208 2.33333 11.0955 2.44757 11.324 2.67604C11.5524 2.90451 11.6667 3.17917 11.6667 3.5V9.33333H0V9.33333M3.5 6.41667V7H2.33333V6.41667H1.16667V8.16667H10.5V6.41667H9.33333V7H8.16667V6.41667H3.5V6.41667M1.16667 3.5V5.25H2.33333V4.66667H3.5V5.25H8.16667V4.66667H9.33333V5.25H10.5V3.5V3.5V3.5H1.16667V3.5V3.5V3.5M4.08333 2.33333H7.58333V1.16667V1.16667V1.16667H4.08333V1.16667V1.16667V2.33333V2.33333" fill="#C4C5D9"/>
</svg>
